<?xml version="1.0" encoding="UTF-8"?><svg id="_レイヤー_2" xmlns="http://www.w3.org/2000/svg" viewBox="0 0 359.18 58.13"><defs><style>.cls-1,.cls-2{fill:#060404;}.cls-3{fill:#231815;}.cls-2{fill-rule:evenodd;}</style></defs><g id="_ロゴ"><g><path class="cls-3" d="m51.4.86h10.62l-6.7,31.54c-3.58,16.84-14.45,25.73-31.44,25.73C4.74,58.13-2.77,49.71.91,32.4L7.61.86h10.56l-6.7,31.54c-1.94,9.11-.14,14.75,14.75,14.75,13.03,0,16.17-3.86,18.48-14.75L51.4.86Zm27.91,0h-10.56l-11.99,56.4h39.86l9.17-11.06h-36.12L79.3.86Zm32.74,0l-9.35,11.14h23.57l-9.62,45.26h10.62l9.62-45.26h18.47l9.16-11.14h-52.47Zm101.19,28.16c-4.16,19.59-15.92,29.11-35.93,29.11s-27.72-9.52-23.56-29.11c4.15-19.53,15.9-29.03,35.91-29.03s27.73,9.49,23.58,29.03Zm-10.56,0c2.82-13.26-1.2-17.96-15.37-17.96s-20.18,4.7-23,17.96c-2.8,13.15,1.36,18.04,15.35,18.04s20.22-4.89,23.02-18.04Zm73.61-8.71c3.05-14.34-6.75-19.46-16.94-19.46h-28.95l-9.15,11.14h33.26c11.28,0,11.86,4.44,10.94,8.79-1.61,7.58-10.74,8.39-14.59,8.39h-31.6l-5.97,28.08h10.56l3.69-17.34h20.96l11.12,17.34h14.37l-13.44-19.62c8-2.21,13.89-8.58,15.75-17.33Zm51.31-15.89c-.82-2.71-2.72-4.27-5.21-4.27s-5.01,1.55-7,4.24l-39.68,52.87h12.34l30.85-41.35,12.88,41.35h12.62l-16.8-52.84Z"/><path class="cls-2" d="m351.19,1.75c3.76,0,6.8,3.05,6.8,6.8s-3.05,6.8-6.8,6.8-6.8-3.05-6.8-6.8,3.05-6.8,6.8-6.8m0-1.18c4.41,0,7.99,3.58,7.99,7.99s-3.58,7.99-7.99,7.99-7.99-3.58-7.99-7.99,3.58-7.99,7.99-7.99Z"/><path class="cls-1" d="m349.99,6.37h1.53c.77,0,1.29.4,1.29,1.02s-.53,1.02-1.29,1.02h-1.53v-2.04Zm4.56,5.8l-1.77-2.52c.99-.35,1.64-1.19,1.64-2.26,0-1.43-1.16-2.44-2.72-2.44h-3.25v7.22h1.54v-2.34h1.14l1.65,2.34h1.76Z"/></g></g></svg>